<svg xmlns="http://www.w3.org/2000/svg" version="1.1" xmlns:xlink="http://www.w3.org/1999/xlink" xmlns:svgjs="http://svgjs.com/svgjs" viewBox="0 0 140 140" width="140" height="140"><g transform="matrix(0.3783783783783784,0,0,0.3783783783783784,0,0)"><path d="M110.17,209,97,207.59c2.45,21.85,9.53,47.34,20.2,74.34l17-15.35C124.35,249.78,115.75,231.16,110.17,209Z" fill="#dea47a" stroke="#45413c" stroke-linecap="round" stroke-linejoin="round" stroke-width="3"></path><path d="M111.93,268a38.84,38.84,0,0,0,17.66-9.58" fill="none" stroke="#45413c" stroke-linecap="round" stroke-linejoin="round" stroke-width="3"></path><path d="M103.69,200.23c3.67-10.15,6.34-19.83,6.13-28.12-4,0-5.8,2.88-7.53,4.55,1-6.48.25-14.14-1.7-21.84-2.6,1.13-3.43,3.93-4.29,7.05-2.35-7.11-2.66-11.74-7.92-18.67-.72,7.68-1.86,13.11,0,18.3-3.06-2.7-6.24-2.69-9.51-1.9,2.62,8,6.4,14.83,12,20-3.2-2.09-6.91-2.3-11-1.18A96,96,0,0,0,96,203.8Z" fill="#46b000" stroke="#45413c" stroke-linecap="round" stroke-linejoin="round" stroke-width="3"></path><path d="M98.33,197.12a225.28,225.28,0,0,0-5.21-30.85" fill="none" stroke="#45413c" stroke-linecap="round" stroke-linejoin="round" stroke-width="3"></path><path d="M96.5,195.48c-7.1-8.32-14.23-15.33-21.4-18.56-1.67,4.46,0,7.67.69,10.29-5.1-3.84-12-6.17-19.37-7.22-.14,3.38,1.89,5.47,4.2,7.73-7.08-.35-15.12,1.08-23.62,3.35,7.65,3,14.71,5.22,19.94,5.28-3.6,2.28-4.94,5.83-5.65,9.8,7.91.4,15.38-1,22.15-5-3.14,2.69-4.89,6.73-5.66,11.72,9.39-.44,18.9-3.06,28.5-7.31Z" fill="#6dd627" stroke="#45413c" stroke-linecap="round" stroke-linejoin="round" stroke-width="3"></path><path d="M96.4,200.32c-14-4.65-26-7.26-38-8.26" fill="none" stroke="#45413c" stroke-linecap="round" stroke-linejoin="round" stroke-width="3"></path><path d="M100.42,199.61c.81-13.29,2.65-25.41,7.44-34.13,5.1,2.68,5.86,6.93,7.17,9.87,2.21-7.61,7.38-15.27,14.06-22.22,2.72,3,2.27,6.49,1.67,10.4,6.88-6,16.11-11.25,26.44-16.08-5.47,8.86-10.88,16.64-16.12,20.92,5.38-.85,7.36-.28,11.12,2.74-7.7,6.77-16.06,14-26,15.81,5.23-.11,9.39-.54,14,3.36-9.82,7.2-18.86,14.34-31.82,18.27Z" fill="#6dd627" stroke="#45413c" stroke-linecap="round" stroke-linejoin="round" stroke-width="3"></path><path d="M105.43,202.59c8.24-13,18.08-24,30-34.72" fill="none" stroke="#45413c" stroke-linecap="round" stroke-linejoin="round" stroke-width="3"></path><path d="M99,221.06a27.71,27.71,0,0,0,14-2.18" fill="none" stroke="#45413c" stroke-linecap="round" stroke-linejoin="round" stroke-width="3"></path><path d="M103.27,240.24a35.07,35.07,0,0,0,15.23-5.46" fill="none" stroke="#45413c" stroke-linecap="round" stroke-linejoin="round" stroke-width="3"></path><path d="M109.34,260.53a41.7,41.7,0,0,0,16.57-9.19" fill="none" stroke="#45413c" stroke-linecap="round" stroke-linejoin="round" stroke-width="3"></path><path d="M89.730 205.060 A6.79 7.95 0 1 0 103.310 205.060 A6.79 7.95 0 1 0 89.730 205.060 Z" fill="#915e3a" stroke="#45413c" stroke-linecap="round" stroke-linejoin="round" stroke-width="3" transform="translate(-44.52 27.66) rotate(-13.28)"></path><path d="M102.560 206.320 A7.29 8.52 0 1 0 117.140 206.320 A7.29 8.52 0 1 0 102.560 206.320 Z" fill="#915e3a" stroke="#45413c" stroke-linecap="round" stroke-linejoin="round" stroke-width="3" transform="translate(-44.46 30.75) rotate(-13.28)"></path><path d="M100.78,230a32.27,32.27,0,0,0,14.65-3.46" fill="none" stroke="#45413c" stroke-linecap="round" stroke-linejoin="round" stroke-width="3"></path><path d="M106,250.06a36,36,0,0,0,16.13-6.55" fill="none" stroke="#45413c" stroke-linecap="round" stroke-linejoin="round" stroke-width="3"></path><path d="M279.67,317.18a48.37,48.37,0,0,0,2.89-16.43c0-36.85-42.29-66.73-94.45-66.73S93.67,263.9,93.67,300.75a48.6,48.6,0,0,0,2.88,16.43Z" fill="#ffe9bd" stroke="#45413c" stroke-linejoin="round" stroke-width="3"></path><path d="M158.060 278.140 A26 7.5 0 1 0 210.060 278.140 A26 7.5 0 1 0 158.060 278.140 Z" fill="#debb7e"></path><path d="M311.5,319.18c11.3,0,20.77-7.57,21.85-17.48.21-2,.21-3.06.21-3.06-11.13,0-13.83-7.11-21.5-7.11s-10.36,7.11-21.49,7.11-13.83-7.11-21.5-7.11-10.37,7.11-21.5,7.11-13.82-7.11-21.5-7.11-10.36,7.11-21.49,7.11-13.83-7.11-21.5-7.11-10.37,7.11-21.5,7.11-13.82-7.11-21.49-7.11-10.37,7.11-21.5,7.11-13.83-7.11-21.5-7.11-10.37,7.11-21.5,7.11-13.82-7.11-21.49-7.11-10.37,7.11-21.5,7.11c0,0,0,.15,0,.43a18.14,18.14,0,0,0,6.11,14.16,23.5,23.5,0,0,0,15.82,5.95Z" fill="#4acfff"></path><path d="M333.56,298.64c-11.13,0-13.83-7.11-21.5-7.11s-10.36,7.11-21.49,7.11-13.83-7.11-21.5-7.11-10.37,7.11-21.5,7.11-13.82-7.11-21.5-7.11-10.36,7.11-21.49,7.11-13.83-7.11-21.5-7.11-10.37,7.11-21.5,7.11-13.82-7.11-21.49-7.11-10.37,7.11-21.5,7.11-13.83-7.11-21.5-7.11-10.37,7.11-21.5,7.11-13.82-7.11-21.49-7.11-10.37,7.11-21.5,7.11" fill="none" stroke="#45413c" stroke-linecap="round" stroke-linejoin="round" stroke-width="3"></path><path d="M230.68,154.82a51.62,51.62,0,1,0-66.62,59c-.54,16-1.94,65.83,1.41,65.83,4,0,9.15-16.08,9.15-16.08h20.25s3.16,16.08,8,16.08c3.19,0,1.73-31.6.34-53.44v0c13.48.75,21.84-20.69,21.24-35.26A51.4,51.4,0,0,0,230.68,154.82Zm-29.94,57.24v0c1.25-.54,2.47-1.12,3.65-1.75A4.19,4.19,0,0,1,200.74,212.06Z" fill="#ffffff" stroke="#45413c" stroke-linecap="round" stroke-linejoin="round" stroke-width="3"></path><path d="M205.8,185.43c-1.45-6.17-5.44-10.52-8.9-9.7s-5.11,6.47-3.67,12.65Z" fill="#ffa694" stroke="#45413c" stroke-linecap="round" stroke-linejoin="round" stroke-width="3"></path><path d="M241.45,147.6c-7.5-.34-13-3.16-16.94-9a22,22,0,1,0,16.94,9Z" fill="#ffffff" stroke="#45413c" stroke-linecap="round" stroke-linejoin="round" stroke-width="3"></path><path d="M228.970 156.140 A2.580 2.580 0 1 0 234.130 156.140 A2.580 2.580 0 1 0 228.970 156.140 Z" fill="#45413c"></path><path d="M185.75,168a21.9,21.9,0,0,0-34.57-13.39c.33,7.25-2.62,12.94-8.88,17.82A21.93,21.93,0,1,0,185.75,168Z" fill="#ffffff" stroke="#45413c" stroke-linecap="round" stroke-linejoin="round" stroke-width="3"></path><path d="M169.460 167.820 A2.580 2.580 0 1 0 174.620 167.820 A2.580 2.580 0 1 0 169.460 167.820 Z" fill="#45413c"></path><path d="M150.65,150.26c2.12,10.56-1.64,18-11.35,24.29" fill="none" stroke="#45413c" stroke-linecap="round" stroke-linejoin="round" stroke-width="3"></path><path d="M222.42,135c4.66,9.72,12.16,13.42,23.67,12.58" fill="none" stroke="#45413c" stroke-linecap="round" stroke-linejoin="round" stroke-width="3"></path><path d="M172,215.77c10.49.56,4.77-33.5,14.8-34.15,17.09-1.09,8.14,50.32-12.81,48.28" fill="#ffffff" stroke="#45413c" stroke-linecap="round" stroke-linejoin="round" stroke-width="3"></path><path d="M200.74,212.06c10.49.55,4.76-33.51,14.8-34.15,16.94-1.09,8.29,49.45-12.29,48.31" fill="#ffffff" stroke="#45413c" stroke-linecap="round" stroke-linejoin="round" stroke-width="3"></path><path d="M112.93,127.1c-2.86,0-6.07-1.65-9.82-5a65.83,65.83,0,0,1-9.32-11,99.13,99.13,0,0,1-6.07-10.43c-2-4-2.35-5.93-2.38-7-.63-4.73,3.37-8.86,5.88-10.58a11.76,11.76,0,0,1,6.52-2.35,7.42,7.42,0,0,1,6.67,4.21l2.85,5.26c.85,1.57,1.25,1.91,1.37,2a5.15,5.15,0,0,0,1-.44c2.32-1.36,2.42-1.82,2.43-1.84.12-.77-1.12-3.47-1.65-4.62L109.8,84a10.93,10.93,0,0,1-.44-8.54,12.9,12.9,0,0,1,7.08-7.11,13.91,13.91,0,0,1,5.74-1.47c3.55,0,6.33,2,8.26,6a59.91,59.91,0,0,1,2.36,6c2.57,7.49,6.08,20.1,7.2,26.95,1.05,6.41-1.94,9.24-4.63,10.48a12,12,0,0,1-5,1.32,6.92,6.92,0,0,1-5.73-3,54.75,54.75,0,0,1-4.57-8.27,16.16,16.16,0,0,0-1-1.81c-.21.1-.51.25-1,.5a8.37,8.37,0,0,0-1.82,1.26,2.8,2.8,0,0,0,.22.48c.63,1.17,1.25,2.11,1.84,3s1.09,1.65,1.57,2.54c2.91,5.44,2.24,10.47-1.73,13.14a9.39,9.39,0,0,1-5.17,1.6Z" fill="#ffcd21"></path><path d="M122.18,69.84c2.3,0,4.09,1.29,5.55,4.33A53.74,53.74,0,0,1,130,79.85,204.27,204.27,0,0,1,137,106.31c.51,3.13.1,5.87-2.93,7.27a9.4,9.4,0,0,1-3.77,1,3.93,3.93,0,0,1-3.31-1.75,51.73,51.73,0,0,1-4.27-7.74c-1.21-2.64-2.08-3.71-3.32-3.71a6.17,6.17,0,0,0-2.78,1c-2.92,1.67-4.23,3.05-2.76,5.78,1.28,2.37,2.5,3.86,3.4,5.54,1.77,3.31,2.28,7.19-.75,9.22a6.41,6.41,0,0,1-3.54,1.1h-.08c-2.3,0-5.13-1.84-7.81-4.26a62.4,62.4,0,0,1-8.85-10.48,95.52,95.52,0,0,1-5.86-10.08c-1.25-2.54-2.11-4.79-2.07-5.9-.55-3.18,2.5-6.46,4.58-7.88a8.79,8.79,0,0,1,4.82-1.83,4.47,4.47,0,0,1,4,2.63l2.85,5.27c1.11,2.05,2.2,3.53,3.94,3.53a5.17,5.17,0,0,0,2.55-.83c4.89-2.85,4.78-4.24,2-10.3l-.58-1.26c-2.07-4.5-.2-9.22,5.16-11.67a11,11,0,0,1,4.5-1.2m0-6h0a16.84,16.84,0,0,0-7,1.74,16,16,0,0,0-8.64,8.79,13.67,13.67,0,0,0-.59,7.39,10.22,10.22,0,0,0-8.22-4.09,14.66,14.66,0,0,0-8.21,2.88c-3.79,2.59-7.85,7.57-7.18,13.27.05,1.52.55,3.79,2.68,8.11a98.84,98.84,0,0,0,6.28,10.79,68.22,68.22,0,0,0,9.79,11.57c4.32,3.91,8.19,5.81,11.83,5.81h.19a12.41,12.41,0,0,0,6.77-2.11,10.75,10.75,0,0,0,4.85-9.09,9.78,9.78,0,0,0,5.6,1.72,15.15,15.15,0,0,0,6.28-1.59c3-1.38,7.77-5,6.34-13.7-1.19-7.22-4.73-19.86-7.33-27.43a58.12,58.12,0,0,0-2.49-6.34c-3.08-6.38-7.66-7.72-11-7.72Z" fill="#45413c"></path><path d="M153.25,109c-3.71,0-6.7-.76-8.9-2.27-5.38-3.68-8.77-13-10-16.8-2.76-8.71-3.37-20.2,3.19-26.29,3.13-2.88,9.91-6.45,18-7.93a33,33,0,0,1,6-.58c10.45,0,12,5.65,12.23,8.07a7.06,7.06,0,0,1-.18,2.88c-1.43,4.51-7.27,5.66-12.91,6.77-2.47.48-6.54,1.28-7.46,2.17l.8-.17a35.63,35.63,0,0,1,6.76-.9c5.67,0,6.72,3.53,6.91,5,.93,7.34-5.45,9.81-10.31,11.32h.14c.5,0,2.3-.3,3.49-.52s2.2-.49,3.34-.79a33.64,33.64,0,0,1,4.82-1,7.22,7.22,0,0,1,.92-.06,7.1,7.1,0,0,1,7.11,6.64c.75,10.15-11.59,12.67-15.64,13.49A42.8,42.8,0,0,1,153.25,109Z" fill="#ffcd21"></path><path d="M161.62,58.12c4.78,0,8.92,1.39,9.24,5.31a5.64,5.64,0,0,1,0,1.69c-1.74,5.73-20,3.88-20.53,9.49a8.36,8.36,0,0,0,.22,2.21,9,9,0,0,0,.54,1.79c1.46-.36,2.19-.52,3.66-.84a33.82,33.82,0,0,1,6.13-.83c2.19,0,3.72.61,4,2.42.8,6.36-6.58,7.39-11.87,9.22l.18.85c.4,1.88,1.51,3.87,4.31,3.87h.35c.73,0,3.15-.43,3.86-.56,2.83-.51,5.32-1.49,8-1.8a5.46,5.46,0,0,1,.57,0,4.12,4.12,0,0,1,4.12,3.86c.51,6.94-7.79,9.22-13.25,10.33a39.06,39.06,0,0,1-7.79.91,12.74,12.74,0,0,1-7.2-1.74c-3.59-2.46-6.82-8.9-8.82-15.23-2.54-8-3-18.17,2.37-23.19,2.78-2.57,9.19-5.84,16.52-7.18a31.13,31.13,0,0,1,5.5-.53m0-6a36.3,36.3,0,0,0-6.58.63c-8.71,1.59-16.07,5.5-19.51,8.68-3.64,3.37-5.74,8.39-6.09,14.52a42.83,42.83,0,0,0,2.07,14.88c1.62,5.12,5.22,14.31,11.15,18.37,2.7,1.85,6.27,2.79,10.59,2.79a45.81,45.81,0,0,0,9-1,35.08,35.08,0,0,0,10.69-3.68c5.13-3,7.74-7.61,7.34-13a10.07,10.07,0,0,0-10.1-9.42h-.25a11.79,11.79,0,0,0,.83-6.29A8.49,8.49,0,0,0,168.68,74c3.59-1.25,6.64-3.23,7.84-7a9.83,9.83,0,0,0,.32-4.06c-.2-2.55-1.91-10.84-15.22-10.84Z" fill="#45413c"></path><path d="M199.88,106.31c-1.36,0-2.79-.12-4.32-.25l-.88-.07-1.81-.18c-.28,0-.49-.06-.69-.07-7.88-.68-15.37-2.63-17.28-12.19a95.59,95.59,0,0,1-1.69-13.26A97.34,97.34,0,0,1,174,59.91c.83-5.2,7.13-6.6,10.35-6.62h.26c3.46,0,11.56,0,12,8.84v.29a4.51,4.51,0,0,0,0,.52c0,.38,0,.77,0,1.14-.06.8-.21,2.4-.43,4.61-.44,4.4-1.1,11-1.28,15.33,0,.62,0,1.15,0,1.58.9.14,1.81.24,2.74.34A25.89,25.89,0,0,1,206.33,88c3.42,1.68,4.84,4.48,4.24,8.33C209.49,103.24,206.2,106.31,199.88,106.31Z" fill="#ffcd21"></path><path d="M184.58,56.29c4.9,0,8.73.7,9,6,0,.53,0,1.08,0,1.6-.15,2.37-1.43,13.6-1.71,20a15.94,15.94,0,0,0,.18,4.23c4.63,1.11,8.86.62,13,2.61,2.2,1.08,3,2.59,2.57,5.16-1,6.18-3.67,7.42-7.72,7.42-1.48,0-3.14-.17-4.95-.32-1.38-.11-2-.21-2.56-.25-7.77-.67-13.06-2.44-14.53-9.78a91.09,91.09,0,0,1-1.63-12.84,94.14,94.14,0,0,1,.72-19.74c.52-3.25,5.46-4.08,7.4-4.09h.25m0-6h-.28c-5.7,0-12.29,2.9-13.29,9.14a98,98,0,0,0-.79,21A97.06,97.06,0,0,0,172,94.14c2.62,13.09,14.72,14.14,19.89,14.58H192l.55.06c.46,0,1,.12,1.89.18l.87.08c1.59.13,3.09.26,4.57.26,7.77,0,12.36-4.2,13.65-12.49.81-5.16-1.28-9.23-5.86-11.48h0a28.2,28.2,0,0,0-9.7-2.35c.23-4.19.81-10,1.2-14,.23-2.24.39-3.86.44-4.71a14.08,14.08,0,0,0,0-1.44c0-.11,0-.21,0-.31V62c-.29-6.15-3.86-8.91-6-10-2.85-1.49-6.15-1.69-9-1.69Z" fill="#45413c"></path><path d="M217,109.87a13.52,13.52,0,0,1-3.28-.39c-4.33-1.09-7.1-4.16-6.9-7.63a169.45,169.45,0,0,1,2.38-18.66c.26-1.52.51-3.18.77-4.89,1.06-7,2.07-13.72,4.47-17,1.21-1.65,3.66-2.42,7.72-2.42a42,42,0,0,1,11.92,1.83c9.93,3.1,17.74,9.08,20.87,16a16.81,16.81,0,0,1,0,14.11c-3.27,7.34-10,11.38-18.88,11.38a36,36,0,0,1-9.64-1.39c0,.05,0,.09-.05.13a30.63,30.63,0,0,1-2.64,6C222.55,108.85,220.17,109.87,217,109.87Zm13.78-25.73a7,7,0,0,0,1.72.23c1.79,0,3.17-.8,3.61-2.07a2.75,2.75,0,0,0-.14-2.12,4.72,4.72,0,0,0-2.8-2.2,5.74,5.74,0,0,0-.66-.18Z" fill="#ffcd21"></path><path d="M222.15,61.88a39.65,39.65,0,0,1,11,1.69c12.89,4,24.25,14.27,19,26-3.05,6.85-9.16,9.6-16.14,9.6a35,35,0,0,1-10.64-1.82l-.83-.26c-1.21,3-1.94,5.89-3.41,8.27-.64,1-2.37,1.47-4.17,1.47a10.48,10.48,0,0,1-2.55-.3c-2.51-.63-4.77-2.33-4.64-4.55a167.64,167.64,0,0,1,2.34-18.32c1.23-7.1,2.2-17.2,4.71-20.63.59-.8,2.64-1.19,5.3-1.19m10.34,25.49c3.16,0,5.61-1.64,6.45-4.1,1.08-3.14-.66-6.71-4.81-8.13a10.08,10.08,0,0,0-2.91-.52,2.91,2.91,0,0,0-1,.15L227.29,85.5a3.76,3.76,0,0,0,1.9,1.31,10.63,10.63,0,0,0,3.3.56M222.15,55.88c-3.21,0-7.75.38-10.14,3.65-2.64,3.61-3.7,9.6-5,18.32-.26,1.72-.51,3.35-.76,4.83a176,176,0,0,0-2.42,19c-.28,4.95,3.4,9.26,9.16,10.71a17.09,17.09,0,0,0,4,.48c4.26,0,7.55-1.53,9.27-4.31a26,26,0,0,0,2-4.19,37.7,37.7,0,0,0,7.75.84c10.16,0,17.84-4.67,21.62-13.16a19.71,19.71,0,0,0,0-16.57c-3.48-7.69-12-14.29-22.71-17.64a45.74,45.74,0,0,0-12.81-2Z" fill="#45413c"></path><path d="M256.55,127.64a12.42,12.42,0,0,1-6.56-2.17c-3.08-2-5.17-6.54-3.18-10.36a7.71,7.71,0,0,1,6.45-4.13c-2.3-5.62.42-11.87,3.21-17.34.69-1.36,1.46-2.77,2.26-4.24s1.64-3,2.46-4.63l1.1-2.55,0-.09c.14-.26.33-.68.51-1.09s.44-1,.58-1.24l.3-.59A8,8,0,0,1,265.35,77l.27-.25.32-.18a6,6,0,0,1,3-.75,13.52,13.52,0,0,1,6.82,2.43A26.67,26.67,0,0,1,282.91,85a12.9,12.9,0,0,1,2.43,10.81,18,18,0,0,1-2.77,6.1c-4.56,6.73-12.61,12.45-16.44,13.83a14.83,14.83,0,0,1-2.92.76,7.29,7.29,0,0,1-.08,7.54A7.59,7.59,0,0,1,256.55,127.64Z" fill="#ffcd21"></path><path d="M268.94,78.82a10.58,10.58,0,0,1,5.2,2,23.47,23.47,0,0,1,6.31,5.93,9.91,9.91,0,0,1,2,8.45,15.11,15.11,0,0,1-2.32,5.06c-4.07,6-11.63,11.48-15,12.69a10.58,10.58,0,0,1-3.56.7,5.61,5.61,0,0,1-3.16-.88,5.31,5.31,0,0,1-2-2.06c-2.26-4.23-.45-9.43,2.72-15.65,1.41-2.76,3.11-5.73,4.76-9,.45-1,.67-1.53,1.11-2.56.3-.58.82-1.8,1.09-2.33.12-.24.18-.35.29-.59a4.86,4.86,0,0,1,1-1.39,3.17,3.17,0,0,1,1.53-.36M253.89,114a6.54,6.54,0,0,1,1.31.13,7.76,7.76,0,0,1,2.92,1.2c2.54,1.71,4,4.74,2.49,7.11a4.6,4.6,0,0,1-4.05,2.24,9.37,9.37,0,0,1-4.93-1.69c-1.81-1.17-3.41-4.06-2.16-6.46a4.76,4.76,0,0,1,4.42-2.53m15.05-41.14A9,9,0,0,0,264.47,74l-.64.36-.53.51a10.69,10.69,0,0,0-2.25,3l-.3.59c-.19.38-.41.85-.64,1.36s-.33.73-.45,1l-.09.17-.07.18c-.42,1-.63,1.47-1,2.37-.78,1.54-1.6,3-2.38,4.48s-1.58,2.9-2.29,4.31c-2.75,5.4-5,11-4.23,16.5a10.58,10.58,0,0,0-5.43,4.94A11.19,11.19,0,0,0,248.35,128a15.41,15.41,0,0,0,8.21,2.66,10.63,10.63,0,0,0,9.1-5,9.92,9.92,0,0,0,1.43-7.07l.07,0c4.95-1.79,13.33-8.24,17.9-15a20.74,20.74,0,0,0,3.21-7.13,15.78,15.78,0,0,0-2.91-13.19,29.51,29.51,0,0,0-8-7.53,16,16,0,0,0-8.44-2.9Z" fill="#45413c"></path><path d="M112.93,123.45c-2.57,0-5.64-1.61-9.15-4.78a64,64,0,0,1-9.16-10.85,95.88,95.88,0,0,1-6-10.31c-2.1-4.25-2.28-6-2.28-6.65-.6-4.27,3.12-8.07,5.45-9.66A10.78,10.78,0,0,1,97.74,79a6.45,6.45,0,0,1,5.79,3.69L106.38,88c.94,1.74,1.59,2.48,2.18,2.48a3.33,3.33,0,0,0,1.54-.56c3.6-2.1,3.75-2.18,1.19-7.74l-.58-1.26a9.93,9.93,0,0,1-.41-7.78,11.9,11.9,0,0,1,6.55-6.55,13.15,13.15,0,0,1,5.33-1.38c3.18,0,5.58,1.79,7.36,5.47a59.75,59.75,0,0,1,2.31,5.9A207.25,207.25,0,0,1,139,103.33c.77,4.65-.6,7.81-4.06,9.41a11,11,0,0,1-4.61,1.22,5.93,5.93,0,0,1-4.92-2.56,53.55,53.55,0,0,1-4.48-8.09c-1-2.14-1.43-2.5-1.54-2.56a6,6,0,0,0-1.75.8c-2.8,1.59-2.58,2-2,3.09s1.28,2.16,1.89,3.08,1.06,1.61,1.52,2.46c2.64,4.94,2.1,9.48-1.41,11.83a8.33,8.33,0,0,1-4.63,1.44Z" fill="#ffcd21"></path><path d="M122.18,67.18c2.3,0,4.09,1.3,5.55,4.33A55,55,0,0,1,130,77.2,204.58,204.58,0,0,1,137,103.65c.51,3.14.1,5.88-2.93,7.28a9.37,9.37,0,0,1-3.77,1,3.92,3.92,0,0,1-3.31-1.74,52.35,52.35,0,0,1-4.27-7.75c-1.21-2.63-2.08-3.71-3.32-3.71a6.21,6.21,0,0,0-2.78,1c-2.92,1.67-4.23,3-2.76,5.77,1.28,2.38,2.5,3.87,3.4,5.55,1.77,3.31,2.28,7.19-.75,9.22a6.41,6.41,0,0,1-3.54,1.1h-.08c-2.3,0-5.13-1.84-7.81-4.26a62.05,62.05,0,0,1-8.85-10.49,94.33,94.33,0,0,1-5.86-10.07c-1.25-2.55-2.11-4.8-2.07-5.9-.55-3.19,2.5-6.46,4.58-7.88A8.81,8.81,0,0,1,97.74,81a4.48,4.48,0,0,1,4,2.64l2.85,5.27c1.11,2,2.2,3.53,3.94,3.53a5.27,5.27,0,0,0,2.55-.83c4.89-2.85,4.78-4.24,2-10.31l-.58-1.26c-2.07-4.5-.2-9.21,5.16-11.67a11.18,11.18,0,0,1,4.5-1.2m0-4h0A14.93,14.93,0,0,0,116,64.75a13.88,13.88,0,0,0-7.6,7.67,12.09,12.09,0,0,0,.47,9.31l.4.87.18.39A26.35,26.35,0,0,1,111,86.87a11.81,11.81,0,0,1-1.92,1.29l-.2.11a12.81,12.81,0,0,1-.75-1.26l-.1-.18-2.75-5.08A8.49,8.49,0,0,0,97.74,77a12.73,12.73,0,0,0-7.08,2.54c-2.69,1.84-7,6.28-6.32,11.47,0,1.25.46,3.27,2.49,7.38A99.59,99.59,0,0,0,93,109a66.93,66.93,0,0,0,9.48,11.2c3.94,3.57,7.37,5.3,10.49,5.3h.15a10.46,10.46,0,0,0,5.7-1.78c4.37-2.93,5.17-8.6,2-14.43-.5-.94-1-1.75-1.61-2.62s-1.1-1.66-1.66-2.67c.24-.16.59-.38,1.08-.66l.06,0c.12.24.26.54.43.9a57,57,0,0,0,4.68,8.44,7.87,7.87,0,0,0,6.53,3.37,13.31,13.31,0,0,0,5.44-1.4c3-1.39,6.36-4.52,5.21-11.56a207.12,207.12,0,0,0-7.25-27.1,58.33,58.33,0,0,0-2.4-6.12c-2.11-4.38-5.19-6.6-9.16-6.6Z" fill="#45413c"></path><path d="M153.25,105.34c-3.5,0-6.31-.71-8.33-2.1-5.12-3.5-8.42-12.55-9.6-16.27-2.66-8.43-3.29-19.49,2.92-25.26,2.92-2.69,9.64-6.24,17.52-7.68a32.85,32.85,0,0,1,5.86-.56c6.77,0,10.87,2.61,11.23,7.15a6,6,0,0,1-.13,2.49c-1.25,4-6.79,5-12.16,6.09-2.85.56-8.15,1.61-8.27,2.93a6.16,6.16,0,0,0,.15,1.44l1.86-.41a35.33,35.33,0,0,1,6.55-.87c4.7,0,5.74,2.61,5.93,4.17.89,7-5.8,9.07-10.68,10.56l-.77.23a2,2,0,0,0,2.09,1.4h.24c.52,0,2.5-.33,3.61-.53s2.31-.51,3.42-.81a33,33,0,0,1,4.67-1,7.65,7.65,0,0,1,.81-.05A6.1,6.1,0,0,1,176.28,92c.69,9.28-11,11.66-14.84,12.44A41.55,41.55,0,0,1,153.25,105.34Z" fill="#ffcd21"></path><path d="M161.62,55.47c4.78,0,8.92,1.39,9.24,5.31a5.58,5.58,0,0,1,0,1.68c-1.74,5.74-20,3.89-20.53,9.49a8.32,8.32,0,0,0,.22,2.21,8.54,8.54,0,0,0,.54,1.79c1.46-.35,2.19-.52,3.66-.83a33.82,33.82,0,0,1,6.13-.83c2.19,0,3.72.6,4,2.42.8,6.36-6.58,7.38-11.87,9.22l.18.85c.4,1.88,1.51,3.87,4.31,3.87h.35c.73,0,3.15-.43,3.86-.56,2.83-.51,5.32-1.49,8-1.8a3.64,3.64,0,0,1,.57,0,4.12,4.12,0,0,1,4.12,3.86c.51,6.94-7.79,9.22-13.25,10.33a39.81,39.81,0,0,1-7.79.91,12.66,12.66,0,0,1-7.2-1.75c-3.59-2.45-6.82-8.89-8.82-15.22-2.54-8.05-3-18.17,2.37-23.19,2.78-2.57,9.19-5.85,16.52-7.18a30.22,30.22,0,0,1,5.5-.53m0-4a35,35,0,0,0-6.22.59c-8.31,1.52-15.29,5.2-18.51,8.18-6.91,6.41-6.32,18.32-3.47,27.33,1.24,3.92,4.73,13.47,10.37,17.32,2.36,1.62,5.55,2.45,9.46,2.45a44.14,44.14,0,0,0,8.59-1,33.26,33.26,0,0,0,10.08-3.45c5.69-3.33,6.6-7.87,6.36-11.1a8.08,8.08,0,0,0-8.11-7.56,9.2,9.2,0,0,0-1,.06,29.74,29.74,0,0,0-3.89.78,9.11,9.11,0,0,0,3.53-8.87,6.52,6.52,0,0,0-5.1-5.6c5-1.07,9.58-2.59,11-6.87a8,8,0,0,0,.23-3.28,8.88,8.88,0,0,0-5.14-7.38,18.1,18.1,0,0,0-8.09-1.61Z" fill="#45413c"></path><path d="M199.88,102.66c-1.32,0-2.73-.12-4.23-.25l-.89-.07-1.78-.18-.74-.07c-7-.6-14.49-2-16.36-11.39a95.09,95.09,0,0,1-1.67-13.12A96.05,96.05,0,0,1,175,57.41c.72-4.53,6.44-5.76,9.36-5.77h.26c3.45,0,10.61,0,11,7.89v.19c0,.2,0,.4,0,.6s0,.7,0,1c0,.79-.22,2.46-.43,4.58-.43,4.41-1.09,11.07-1.28,15.39-.05,1.1,0,1.9,0,2.47,1.22.22,2.43.36,3.62.49a24.65,24.65,0,0,1,8.43,2c3,1.48,4.22,3.86,3.69,7.28C208.58,99.93,205.68,102.66,199.88,102.66Z" fill="#ffcd21"></path><path d="M184.58,53.64c4.9,0,8.73.7,9,6,0,.54,0,1.09,0,1.61-.15,2.36-1.43,13.59-1.71,20a15.94,15.94,0,0,0,.18,4.23c4.63,1.11,8.86.62,13,2.6,2.2,1.08,3,2.6,2.57,5.17-1,6.18-3.67,7.42-7.72,7.42-1.48,0-3.14-.17-4.95-.32-1.38-.11-2-.22-2.56-.25-7.77-.67-13.06-2.45-14.53-9.78a91.46,91.46,0,0,1-1.63-12.84,94.14,94.14,0,0,1,.72-19.74c.52-3.25,5.46-4.08,7.4-4.09h.25m0-4h-.27c-3.51,0-10.39,1.59-11.33,7.46a97.36,97.36,0,0,0-.76,20.59,94.6,94.6,0,0,0,1.7,13.4c2.32,11.62,13,12.54,18.1,13h.1l.65.07,1.83.18.88.07c1.54.13,3,.26,4.4.26,6.82,0,10.53-3.44,11.68-10.81.84-5.4-2.13-8.07-4.77-9.37a26.42,26.42,0,0,0-9.12-2.18l-1.84-.22c0-.21,0-.43,0-.67.18-4.26.84-10.88,1.27-15.27.22-2.22.38-3.83.44-4.65,0-.47,0-.9,0-1.24a3.2,3.2,0,0,1,0-.44v-.38c-.47-9.79-9.55-9.79-13-9.79Z" fill="#45413c"></path><path d="M217,106.22a12.59,12.59,0,0,1-3-.37c-3.85-1-6.32-3.62-6.14-6.6a170.4,170.4,0,0,1,2.36-18.54c.26-1.53.52-3.2.78-4.91,1-6.63,2-13.48,4.29-16.56.63-.86,2-2,6.91-2A41,41,0,0,1,233.77,59c9.67,3,17.24,8.8,20.26,15.47a15.86,15.86,0,0,1,0,13.29c-3.1,7-9.48,10.79-18,10.79A36,36,0,0,1,225.77,97l-.36,1a30,30,0,0,1-2.55,5.84C221.56,105.9,218.62,106.22,217,106.22Zm12.56-24.07.27.11a8.64,8.64,0,0,0,2.67.45h0c2.23,0,4-1,4.56-2.74a3.66,3.66,0,0,0-.2-2.88,5.62,5.62,0,0,0-3.37-2.71,8.52,8.52,0,0,0-1.71-.37Z" fill="#ffcd21"></path><path d="M222.15,59.23a39.28,39.28,0,0,1,11,1.69c12.89,4,24.25,14.26,19,26-3.05,6.85-9.15,9.6-16.14,9.6a35,35,0,0,1-10.64-1.82l-.83-.27c-1.21,3-1.94,5.9-3.41,8.28-.64,1-2.37,1.47-4.17,1.47a11,11,0,0,1-2.55-.3c-2.51-.64-4.77-2.33-4.64-4.55a167,167,0,0,1,2.34-18.32c1.23-7.11,2.2-17.2,4.71-20.63.59-.81,2.64-1.19,5.3-1.19m10.34,25.48c3.16,0,5.61-1.63,6.45-4.09,1.08-3.14-.66-6.72-4.81-8.13a10.08,10.08,0,0,0-2.91-.52,2.91,2.91,0,0,0-1,.15l-2.92,10.73a3.76,3.76,0,0,0,1.9,1.31,10.6,10.6,0,0,0,3.3.55M222.15,55.23c-4.47,0-7.1.87-8.52,2.83-2.37,3.23-3.39,9-4.66,17.44-.26,1.73-.51,3.37-.77,4.87a173.34,173.34,0,0,0-2.39,18.77c-.23,4,2.84,7.45,7.65,8.65a14.65,14.65,0,0,0,3.53.43c3.54,0,6.22-1.2,7.57-3.37A28.48,28.48,0,0,0,227,99.37a36.8,36.8,0,0,0,9,1.19c9.33,0,16.36-4.25,19.79-12a17.77,17.77,0,0,0,0-14.94c-3.25-7.18-11.28-13.37-21.48-16.55a43.42,43.42,0,0,0-12.22-1.87ZM232,80.69l.56-2.07.61-2.21A3.46,3.46,0,0,1,235.06,78a1.72,1.72,0,0,1,.1,1.35,2.62,2.62,0,0,1-2.67,1.39,3.77,3.77,0,0,1-.47,0Z" fill="#45413c"></path><path d="M256.56,124a11.38,11.38,0,0,1-6-2c-2.72-1.76-4.58-5.73-2.85-9a6.72,6.72,0,0,1,6.2-3.61,8.51,8.51,0,0,1,1,.06,3.62,3.62,0,0,1-.24-.43c-2.64-4.93-.83-10.56,2.71-17.5.69-1.35,1.45-2.75,2.24-4.21s1.66-3.07,2.49-4.68L263.2,80l0-.06c.15-.27.34-.71.53-1.13s.42-.92.56-1.2l.3-.59A6.88,6.88,0,0,1,266,75.08l.18-.17.21-.12a5.08,5.08,0,0,1,2.51-.62,12.58,12.58,0,0,1,6.28,2.27,25.36,25.36,0,0,1,6.87,6.46,12,12,0,0,1,2.27,10,17.18,17.18,0,0,1-2.61,5.75c-4.28,6.3-12.18,12.08-16,13.45a12.69,12.69,0,0,1-4.24.82h-.13c2,2.43,2.4,5.48.87,7.88A6.62,6.62,0,0,1,256.56,124Z" fill="#ffcd21"></path><path d="M268.94,76.17a10.58,10.58,0,0,1,5.2,2,23.16,23.16,0,0,1,6.31,5.93,9.9,9.9,0,0,1,2,8.45,15.07,15.07,0,0,1-2.32,5c-4.07,6-11.63,11.48-15,12.7a10.58,10.58,0,0,1-3.56.7,5.62,5.62,0,0,1-3.16-.89,5.34,5.34,0,0,1-2-2c-2.26-4.23-.45-9.43,2.72-15.66,1.41-2.76,3.11-5.72,4.76-8.95.45-1,.67-1.53,1.11-2.56.3-.58.82-1.8,1.09-2.33l.29-.59a4.86,4.86,0,0,1,1-1.39,3.06,3.06,0,0,1,1.53-.36m-15.05,35.14a6.54,6.54,0,0,1,1.31.13,7.6,7.6,0,0,1,2.92,1.2c2.54,1.71,4,4.74,2.49,7.11a4.6,4.6,0,0,1-4.05,2.24,9.46,9.46,0,0,1-4.93-1.69c-1.81-1.18-3.41-4.06-2.16-6.46a4.76,4.76,0,0,1,4.42-2.53m15.05-39.14h0a7,7,0,0,0-3.49.87l-.43.24-.35.34a8.85,8.85,0,0,0-1.84,2.48l-.3.59c-.15.3-.37.78-.6,1.28s-.35.8-.49,1.06l-.06.11-.05.12-1.05,2.43c-.81,1.58-1.63,3.1-2.43,4.58s-1.57,2.88-2.27,4.27c-4.45,8.73-4.73,13.56-3.7,17a8.59,8.59,0,0,0-6,4.48c-2.25,4.32.08,9.42,3.53,11.66a13.32,13.32,0,0,0,7.11,2.34,8.57,8.57,0,0,0,7.42-4.08,8.14,8.14,0,0,0,.67-7.35,16.36,16.36,0,0,0,1.82-.55c3.95-1.43,12.26-7.31,16.93-14.21a18.79,18.79,0,0,0,2.91-6.44,13.88,13.88,0,0,0-2.58-11.61,27.55,27.55,0,0,0-7.43-7,14,14,0,0,0-7.36-2.58Z" fill="#45413c"></path></g></svg>