<svg id="Layer_1" enable-background="new 0 0 512 512" height="512" viewBox="0 0 512 512" width="512" xmlns="http://www.w3.org/2000/svg"><g><path d="m448 0h-332v52h-52v376.485l83.515 83.515h248.485v-52h52zm-304 491.515-59.515-59.515h59.515zm240 8.485h-228v-80h-80v-356h308zm52-52h-40v-396h-268v-40h308z"/><path d="m118 100h160v12h-160z"/><path d="m118 132h128v12h-128z"/><path d="m156 180h-44v44h44zm-12 32h-20v-20h20z"/><path d="m182 212h128v12h-128z"/><path d="m182 180h160v12h-160z"/><path d="m156 260h-44v44h44zm-12 32h-20v-20h20z"/><path d="m182 292h128v12h-128z"/><path d="m182 260h160v12h-160z"/><path d="m156 340h-44v44h44zm-12 32h-20v-20h20z"/><path d="m182 372h128v12h-128z"/><path d="m182 340h160v12h-160z"/><path d="m182 452h128v12h-128z"/><path d="m182 420h160v12h-160z"/></g></svg>